{
    "asset" : {
        "generator" : "Khronos glTF Blender I/O v1.8.19",
        "version" : "2.0"
    },
    "scene" : 0,
    "scenes" : [
        {
            "name" : "Scene",
            "nodes" : [
                0
            ]
        }
    ],
    "nodes" : [
        {
            "mesh" : 0,
            "name" : "\u041f\u043b\u043e\u0441\u043a\u043e\u0441\u0442\u044c",
            "scale" : [
                5.756687641143799,
                5.756687641143799,
                5.756687641143799
            ]
        }
    ],
    "meshes" : [
        {
            "name" : "\u041f\u043b\u043e\u0441\u043a\u043e\u0441\u0442\u044c",
            "primitives" : [
                {
                    "attributes" : {
                        "POSITION" : 0,
                        "NORMAL" : 1,
                        "TEXCOORD_0" : 2
                    },
                    "indices" : 3
                }
            ]
        }
    ],
    "accessors" : [
        {
            "bufferView" : 0,
            "componentType" : 5126,
            "count" : 1504,
            "max" : [
                1.5649971961975098,
                0.8747820258140564,
                1.0000001192092896
            ],
            "min" : [
                -11.566173553466797,
                0,
                -3.656397819519043
            ],
            "type" : "VEC3"
        },
        {
            "bufferView" : 1,
            "componentType" : 5126,
            "count" : 1504,
            "type" : "VEC3"
        },
        {
            "bufferView" : 2,
            "componentType" : 5126,
            "count" : 1504,
            "type" : "VEC2"
        },
        {
            "bufferView" : 3,
            "componentType" : 5123,
            "count" : 3222,
            "type" : "SCALAR"
        }
    ],
    "bufferViews" : [
        {
            "buffer" : 0,
            "byteLength" : 18048,
            "byteOffset" : 0
        },
        {
            "buffer" : 0,
            "byteLength" : 18048,
            "byteOffset" : 18048
        },
        {
            "buffer" : 0,
            "byteLength" : 12032,
            "byteOffset" : 36096
        },
        {
            "buffer" : 0,
            "byteLength" : 6444,
            "byteOffset" : 48128
        }
    ],
    "buffers" : [
        {
            "byteLength" : 54572,
            "uri" : "data:application/octet-stream;base64,"
        }
    ]
}
